<svg xmlns="http://www.w3.org/2000/svg" viewBox="0 0 800 600" style="background: linear-gradient(135deg, #f8f9fa 0%, #e9ecef 100%);">
  <!-- 碗 -->
  <ellipse cx="400" cy="450" rx="140" ry="25" fill="#E8E8E8"/>
  <ellipse cx="400" cy="350" rx="140" ry="100" fill="#F5F5F5"/>
  <ellipse cx="400" cy="340" rx="135" ry="95" fill="#FFFFFF"/>
  
  <!-- 豆腐脑 -->
  <ellipse cx="400" cy="350" rx="120" ry="80" fill="#FFFAF0"/>
  <ellipse cx="400" cy="340" rx="115" ry="75" fill="#FFF8DC"/>
  
  <!-- 玉米粒 -->
  <ellipse cx="350" cy="320" rx="8" ry="4" fill="#FFD700"/>
  <ellipse cx="365" cy="325" rx="8" ry="4" fill="#FFD700"/>
  <ellipse cx="380" cy="330" rx="8" ry="4" fill="#FFD700"/>
  <ellipse cx="420" cy="325" rx="8" ry="4" fill="#FFD700"/>
  <ellipse cx="435" cy="330" rx="8" ry="4" fill="#FFD700"/>
  <ellipse cx="450" cy="320" rx="8" ry="4" fill="#FFD700"/>
  
  <!-- 小青菜 -->
  <ellipse cx="370" cy="360" rx="15" ry="8" fill="#32CD32"/>
  <ellipse cx="430" cy="365" rx="12" ry="6" fill="#32CD32"/>
  <rect x="367" y="365" width="3" height="10" fill="#90EE90"/>
  <rect x="428" y="370" width="3" height="8" fill="#90EE90"/>
  
  <text x="400" y="150" font-family="Arial, sans-serif" font-size="36" font-weight="bold" fill="#2E8B57" text-anchor="middle">玉米豆腐脑配小青菜</text>
  <text x="400" y="550" font-family="Arial, sans-serif" font-size="24" fill="#666" text-anchor="middle">清淡营养 · 植物蛋白 · 340大卡</text>
</svg>